<svg width="256" height="256" viewBox="0 0 256 256" fill="none" xmlns="http://www.w3.org/2000/svg">
<g clip-path="url(#clip0)">
<path d="M140.78 64.8372C146.455 64.8372 151.056 60.2011 151.056 54.4823C151.056 48.7635 146.455 44.1275 140.78 44.1275C135.105 44.1275 130.504 48.7635 130.504 54.4823C130.504 60.2011 135.105 64.8372 140.78 64.8372Z" fill="#F47211"/>
<path d="M61.1006 43.1717C66.776 43.1717 71.3767 38.5356 71.3767 32.8168C71.3767 27.098 66.776 22.462 61.1006 22.462C55.4253 22.462 50.8245 27.098 50.8245 32.8168C50.8245 38.5356 55.4253 43.1717 61.1006 43.1717Z" fill="#F47211"/>
<path d="M140.622 20.7097C146.297 20.7097 150.898 16.0736 150.898 10.3548C150.898 4.63601 146.297 0 140.622 0C134.946 0 130.346 4.63601 130.346 10.3548C130.346 16.0736 134.946 20.7097 140.622 20.7097Z" fill="#F47211"/>
<path d="M193.741 20.7097C199.417 20.7097 204.017 16.0736 204.017 10.3548C204.017 4.63601 199.417 0 193.741 0C188.066 0 183.465 4.63601 183.465 10.3548C183.465 16.0736 188.066 20.7097 193.741 20.7097Z" fill="#F47211"/>
<path d="M193.899 64.8372C199.575 64.8372 204.176 60.2011 204.176 54.4823C204.176 48.7635 199.575 44.1275 193.899 44.1275C188.224 44.1275 183.623 48.7635 183.623 54.4823C183.623 60.2011 188.224 64.8372 193.899 64.8372Z" fill="#F47211"/>
<path d="M87.3442 64.8372C93.0195 64.8372 97.6203 60.2011 97.6203 54.4823C97.6203 48.7635 93.0195 44.1275 87.3442 44.1275C81.6689 44.1275 77.0681 48.7635 77.0681 54.4823C77.0681 60.2011 81.6689 64.8372 87.3442 64.8372Z" fill="#F47211"/>
<path d="M167.656 43.1717C173.331 43.1717 177.932 38.5356 177.932 32.8168C177.932 27.098 173.331 22.462 167.656 22.462C161.98 22.462 157.38 27.098 157.38 32.8168C157.38 38.5356 161.98 43.1717 167.656 43.1717Z" fill="#F47211"/>
<path d="M114.536 43.1717C120.212 43.1717 124.812 38.5356 124.812 32.8168C124.812 27.098 120.212 22.462 114.536 22.462C108.861 22.462 104.26 27.098 104.26 32.8168C104.26 38.5356 108.861 43.1717 114.536 43.1717Z" fill="#F47211"/>
<path d="M87.1861 20.7097C92.8614 20.7097 97.4622 16.0736 97.4622 10.3548C97.4622 4.63601 92.8614 0 87.1861 0C81.5107 0 76.91 4.63601 76.91 10.3548C76.91 16.0736 81.5107 20.7097 87.1861 20.7097Z" fill="#F47211"/>
<path fill-rule="evenodd" clip-rule="evenodd" d="M209.962 246.441C209.705 245.465 209.258 244.55 208.648 243.749L195.877 226.672C218.002 207.363 232 178.849 232 147.039C232.035 124.967 225.155 103.447 212.341 85.5468H42.6589C29.8447 103.447 22.9649 124.967 23 147.039C23 178.836 36.9865 207.342 59.0991 226.646L46.352 243.692C45.7354 244.493 45.2829 245.409 45.0207 246.387C44.7584 247.365 44.6918 248.386 44.8247 249.391C44.9575 250.395 45.2871 251.363 45.7944 252.238C46.3017 253.113 46.9765 253.878 47.7797 254.487C48.5828 255.097 49.4982 255.54 50.4727 255.79C51.4472 256.041 52.4613 256.093 53.4562 255.945C54.451 255.797 55.4067 255.451 56.2677 254.927C57.1286 254.404 57.8778 253.713 58.4715 252.895L71.2581 235.803C88.0545 246.599 107.562 252.336 127.484 252.339C147.406 252.342 166.915 246.611 183.715 235.821L196.529 252.954C197.125 253.766 197.874 254.451 198.735 254.969C199.595 255.487 200.548 255.828 201.54 255.973C202.532 256.118 203.542 256.063 204.513 255.813C205.484 255.562 206.396 255.12 207.196 254.512C207.996 253.904 208.669 253.143 209.176 252.271C209.683 251.4 210.013 250.436 210.148 249.436C210.283 248.435 210.22 247.417 209.962 246.441ZM152.932 139.851C158.514 139.851 163.867 142.085 167.814 146.062C171.697 150.052 173.859 155.426 173.832 161.014C173.804 166.602 171.589 171.954 167.668 175.906C163.747 179.857 158.436 182.09 152.89 182.118C147.344 182.145 142.012 179.966 138.051 176.054L127.5 165.421L116.947 176.054C114.004 179.02 110.254 181.039 106.172 181.858C102.089 182.676 97.8578 182.256 94.0124 180.65C90.167 179.045 86.8803 176.327 84.5679 172.84C82.2554 169.352 81.0212 165.252 81.0212 161.058C81.0212 156.864 82.2554 152.764 84.5679 149.277C86.8803 145.789 90.167 143.071 94.0124 141.466C97.8578 139.861 102.089 139.441 106.172 140.259C110.254 141.077 114.004 143.096 116.947 146.062L127.5 156.696L138.05 146.062C141.997 142.085 147.35 139.851 152.932 139.851ZM104.973 175.876C107.866 175.296 110.522 173.865 112.608 171.764L123.149 161.14L112.608 150.516C110.522 148.415 107.866 146.984 104.973 146.405C102.081 145.825 99.0835 146.123 96.3592 147.26C93.6348 148.397 91.3063 150.323 89.668 152.793C88.0298 155.264 87.1554 158.169 87.1554 161.14C87.1554 164.112 88.0298 167.016 89.668 169.487C91.3063 171.958 93.6348 173.883 96.3592 175.021C99.0835 176.158 102.081 176.455 104.973 175.876ZM152.932 176.164C156.886 176.164 160.678 174.582 163.474 171.764L163.476 171.759C166.272 168.942 167.843 165.121 167.843 161.136C167.843 157.151 166.273 153.33 163.477 150.512C160.681 147.695 156.888 146.111 152.934 146.111C148.98 146.111 145.187 147.694 142.391 150.511L131.848 161.135L142.389 171.764C145.185 174.582 148.978 176.164 152.932 176.164Z" fill="url(#paint0_linear)"/>
</g>
<defs>
<linearGradient id="paint0_linear" x1="23" y1="170.773" x2="232" y2="170.773" gradientUnits="userSpaceOnUse">
<stop stop-color="#FFE515"/>
<stop offset="1" stop-color="#E9000D"/>
</linearGradient>
<clipPath id="clip0">
<rect width="209" height="256" fill="white" transform="translate(23)"/>
</clipPath>
</defs>
</svg>
